<?xml version="1.0" encoding="UTF-8"?>
<svg id="Layer_2" data-name="Layer 2" xmlns="http://www.w3.org/2000/svg" xmlns:xlink="http://www.w3.org/1999/xlink" viewBox="0 0 64.57 63.92">
  <defs>
    <style>
      .cls-1 {
        fill: url(#linear-gradient-8);
      }

      .cls-2 {
        fill: url(#linear-gradient-7);
      }

      .cls-3 {
        fill: url(#linear-gradient-5);
      }

      .cls-4 {
        fill: url(#linear-gradient-6);
      }

      .cls-5 {
        fill: url(#linear-gradient-4);
      }

      .cls-6 {
        fill: url(#linear-gradient-3);
      }

      .cls-7 {
        fill: url(#linear-gradient-2);
      }

      .cls-8 {
        fill: url(#linear-gradient);
      }

      .cls-9 {
        fill: #221f1f;
      }
    </style>
    <linearGradient id="linear-gradient" x1="18.03" y1="15.98" x2="32.29" y2="15.98" gradientUnits="userSpaceOnUse">
      <stop offset="0" stop-color="#fadf96"/>
      <stop offset="1" stop-color="#c4912c"/>
    </linearGradient>
    <linearGradient id="linear-gradient-2" x1="12.28" y1="17.11" x2="31.53" y2="39.48" gradientUnits="userSpaceOnUse">
      <stop offset="0" stop-color="#c4912c"/>
      <stop offset="1" stop-color="#fadf96"/>
    </linearGradient>
    <linearGradient id="linear-gradient-3" x1="-2640.01" y1="287.48" x2="-2625.75" y2="287.48" gradientTransform="translate(-2593.47 335.42) rotate(-180)" xlink:href="#linear-gradient"/>
    <linearGradient id="linear-gradient-4" x1="-2645.76" y1="288.61" x2="-2626.51" y2="310.98" gradientTransform="translate(-2593.47 335.42) rotate(-180)" xlink:href="#linear-gradient-2"/>
    <linearGradient id="linear-gradient-5" x1="-1184.78" y1="1455.21" x2="-1170.67" y2="1455.21" gradientTransform="translate(-1439.07 -1138.71) rotate(-90)" xlink:href="#linear-gradient"/>
    <linearGradient id="linear-gradient-6" x1="-1190.64" y1="1456.45" x2="-1171.38" y2="1478.84" gradientTransform="translate(-1439.07 -1138.71) rotate(-90)" xlink:href="#linear-gradient-2"/>
    <linearGradient id="linear-gradient-7" x1="-1436.91" y1="-1152.08" x2="-1422.8" y2="-1152.08" gradientTransform="translate(-1103.65 1454.76) rotate(90)" xlink:href="#linear-gradient"/>
    <linearGradient id="linear-gradient-8" x1="-1442.77" y1="-1150.84" x2="-1423.51" y2="-1128.45" gradientTransform="translate(-1103.65 1454.76) rotate(90)" xlink:href="#linear-gradient-2"/>
  </defs>
  <g id="Layer_1-2" data-name="Layer 1">
    <g>
      <g>
        <g>
          <polygon class="cls-8" points="32.29 0 32.29 31.96 18.03 17.85 32.29 0"/>
          <polygon class="cls-7" points="18.03 17.85 17.84 31.96 32.29 31.96 18.03 17.85"/>
        </g>
        <g>
          <polygon class="cls-6" points="32.29 63.92 32.29 31.96 46.54 46.07 32.29 63.92"/>
          <polygon class="cls-5" points="46.54 46.07 46.73 31.96 32.29 31.96 46.54 46.07"/>
        </g>
      </g>
      <g>
        <g>
          <polygon class="cls-3" points="0 31.96 32.29 31.96 18.03 46.07 0 31.96"/>
          <polygon class="cls-4" points="18.03 46.07 32.29 46.26 32.29 31.96 18.03 46.07"/>
        </g>
        <g>
          <polygon class="cls-2" points="64.57 31.96 32.29 31.96 46.54 17.85 64.57 31.96"/>
          <polygon class="cls-1" points="46.54 17.85 32.29 17.66 32.29 31.96 46.54 17.85"/>
        </g>
      </g>
      <path class="cls-9" d="M46.54,17.85c-7.06,7.08-21.37,21.24-28.51,28.23,7.06-7.08,21.37-21.24,28.51-28.23h0Z"/>
      <path class="cls-9" d="M18.03,17.85c7.15,6.99,21.45,21.15,28.51,28.23-7.15-6.99-21.45-21.15-28.51-28.23h0Z"/>
    </g>
  </g>
</svg>